<svg width="12" height="12" viewBox="0 0 12 12" fill="none" xmlns="http://www.w3.org/2000/svg"><rect id="frame" width="12" height="12" fill="none"/><path fill-rule="evenodd" clip-rule="evenodd" d="M11.234 7.693l-1.251-.897a4.08 4.08 0 0 0 0-1.592l1.25-.897a5.495 5.495 0 0 0-1.147-1.988l-1.402.633a4.057 4.057 0 0 0-1.383-.8L7.148.62a5.522 5.522 0 0 0-2.296 0L4.699 2.15a4.057 4.057 0 0 0-1.384.8L1.913 2.32A5.494 5.494 0 0 0 .765 4.306l1.25.898a4.081 4.081 0 0 0 0 1.592l-1.25.898c.24.744.636 1.42 1.148 1.987l1.402-.633c.4.352.869.627 1.384.8l.153 1.532a5.52 5.52 0 0 0 2.296 0L7.3 9.849a4.057 4.057 0 0 0 1.383-.8l1.402.632a5.495 5.495 0 0 0 1.148-1.988zM7.945 6a1.946 1.946 0 1 1-3.892 0 1.946 1.946 0 0 1 3.892 0z" fill="#7F8B91" fill-opacity=".9"/></svg>